<?xml version="1.0" encoding="utf-8"?>
<!-- Generator: Adobe Illustrator 23.0.4, SVG Export Plug-In . SVG Version: 6.00 Build 0)  -->
<svg version="1.1" id="Layer_1" xmlns="http://www.w3.org/2000/svg" xmlns:xlink="http://www.w3.org/1999/xlink" x="0px" y="0px"
	 viewBox="0 0 141.12 91.68" style="enable-background:new 0 0 141.12 91.68;" xml:space="preserve">
<style type="text/css">
	.st0{fill:#574293;}
	.st1{fill:#FFFFFF;}
	.st2{font-family:'Avenir-Medium';}
	.st3{font-size:9.1331px;}
	.st4{letter-spacing:1;}
	.st5{clip-path:url(#SVGID_4_);fill:#FFFFFF;}
	.st6{clip-path:url(#SVGID_10_);fill:#574293;}
</style>
<g>
	<g>
		<rect y="0" class="st0" width="141.12" height="91.68"/>
		<g>
			<text transform="matrix(1 0 0 1 30.8233 70.5901)" class="st1 st2 st3 st4">EAST ANGLIA</text>
			<g>
				<g>
					<g>
						<defs>
							<path id="SVGID_1_" d="M49.54,17.36v12.81c-2.89-3.72-7.4-6.12-12.46-6.12c-8.7,0-15.78,7.08-15.78,15.78
								S28.39,55.6,37.09,55.6c7.03,0,13-4.63,15.03-11l-1.9-3.3c-0.74,6.59-6.34,11.73-13.13,11.73c-7.29,0-13.21-5.93-13.21-13.21
								c0-7.29,5.93-13.21,13.21-13.21c4.77,0,8.96,2.54,11.28,6.34l0,0l0.38,0.66c0.01,0.01,0.01,0.02,0.02,0.04L49.54,35v0.18h0.1
								l3.19,5.52v0l3.98,6.89l0.02,0.02c2.72,4.77,7.84,8,13.72,8c0.85,0,1.68-0.07,2.49-0.2v0.01c0.06-0.01,0.13-0.02,0.19-0.03
								c0,0,0.01,0,0.01,0c5.84-1,10.59-5.22,12.36-10.77l-1.9-3.3c-0.32,2.87-1.57,5.47-3.43,7.49v-0.02
								c-2.42,2.62-5.88,4.27-9.72,4.27c-4.76,0-8.94-2.53-11.27-6.32l-0.37-0.63c-0.02-0.04-0.04-0.09-0.07-0.13l-4.05-7.01
								c0,0,0,0.01,0,0.01l-2.68-4.65V17.36H49.54z M117.2,17.36v13.79c-2.83-4.27-7.67-7.09-13.16-7.09
								c-7.03,0-13,4.63-15.03,10.99l1.9,3.3c0.74-6.59,6.34-11.73,13.13-11.73c7.29,0,13.21,5.93,13.21,13.21
								c0,7.29-5.93,13.21-13.21,13.21c-4.76,0-8.94-2.53-11.27-6.32l-0.37-0.63c-0.02-0.04-0.04-0.09-0.07-0.13l-4.05-7.01
								c0,0,0,0.01,0,0.01l-2.34-4.05V17.36h-2.57v13.27c-2.12-2.94-5.23-5.13-8.84-6.06c-0.01,0-0.01,0-0.02,0
								c-0.33-0.09-0.67-0.16-1.01-0.22c-0.11-0.02-0.21-0.04-0.32-0.06c-0.05-0.01-0.09-0.02-0.14-0.03v0
								c-0.81-0.13-1.64-0.2-2.49-0.2c-7.03,0-13,4.63-15.03,10.99l1.9,3.3c0.74-6.59,6.34-11.73,13.13-11.73
								c0.94,0,1.85,0.1,2.74,0.29c0.04,0.01,0.08,0.02,0.13,0.03c0.2,0.05,0.4,0.09,0.59,0.14c0.01,0,0.02,0.01,0.03,0.01
								c2.43,0.66,4.57,2,6.23,3.8v-0.02c0.59,0.64,1.13,1.34,1.58,2.09l0,0l0.38,0.66c0.01,0.01,0.01,0.02,0.02,0.04l4.08,7.06v0
								l3.98,6.89l0.02,0.02c2.72,4.77,7.85,8,13.72,8c8.7,0,15.78-7.08,15.78-15.78c0-0.36-0.02-0.72-0.04-1.07v-21.4H117.2z"/>
						</defs>
						<clipPath id="SVGID_2_">
							<use xlink:href="#SVGID_1_"  style="overflow:visible;"/>
						</clipPath>
					</g>
					<g>
						<defs>
							<path id="SVGID_3_" d="M49.54,17.36v12.81c-2.89-3.72-7.4-6.12-12.46-6.12c-8.7,0-15.78,7.08-15.78,15.78
								S28.39,55.6,37.09,55.6c7.03,0,13-4.63,15.03-11l-1.9-3.3c-0.74,6.59-6.34,11.73-13.13,11.73c-7.29,0-13.21-5.93-13.21-13.21
								c0-7.29,5.93-13.21,13.21-13.21c4.77,0,8.96,2.54,11.28,6.34l0,0l0.38,0.66c0.01,0.01,0.01,0.02,0.02,0.04L49.54,35v0.18h0.1
								l3.19,5.52v0l3.98,6.89l0.02,0.02c2.72,4.77,7.84,8,13.72,8c0.85,0,1.68-0.07,2.49-0.2v0.01c0.06-0.01,0.13-0.02,0.19-0.03
								c0,0,0.01,0,0.01,0c5.84-1,10.59-5.22,12.36-10.77l-1.9-3.3c-0.32,2.87-1.57,5.47-3.43,7.49v-0.02
								c-2.42,2.62-5.88,4.27-9.72,4.27c-4.76,0-8.94-2.53-11.27-6.32l-0.37-0.63c-0.02-0.04-0.04-0.09-0.07-0.13l-4.05-7.01
								c0,0,0,0.01,0,0.01l-2.68-4.65V17.36H49.54z M117.2,17.36v13.79c-2.83-4.27-7.67-7.09-13.16-7.09
								c-7.03,0-13,4.63-15.03,10.99l1.9,3.3c0.74-6.59,6.34-11.73,13.13-11.73c7.29,0,13.21,5.93,13.21,13.21
								c0,7.29-5.93,13.21-13.21,13.21c-4.76,0-8.94-2.53-11.27-6.32l-0.37-0.63c-0.02-0.04-0.04-0.09-0.07-0.13l-4.05-7.01
								c0,0,0,0.01,0,0.01l-2.34-4.05V17.36h-2.57v13.27c-2.12-2.94-5.23-5.13-8.84-6.06c-0.01,0-0.01,0-0.02,0
								c-0.33-0.09-0.67-0.16-1.01-0.22c-0.11-0.02-0.21-0.04-0.32-0.06c-0.05-0.01-0.09-0.02-0.14-0.03v0
								c-0.81-0.13-1.64-0.2-2.49-0.2c-7.03,0-13,4.63-15.03,10.99l1.9,3.3c0.74-6.59,6.34-11.73,13.13-11.73
								c0.94,0,1.85,0.1,2.74,0.29c0.04,0.01,0.08,0.02,0.13,0.03c0.2,0.05,0.4,0.09,0.59,0.14c0.01,0,0.02,0.01,0.03,0.01
								c2.43,0.66,4.57,2,6.23,3.8v-0.02c0.59,0.64,1.13,1.34,1.58,2.09l0,0l0.38,0.66c0.01,0.01,0.01,0.02,0.02,0.04l4.08,7.06v0
								l3.98,6.89l0.02,0.02c2.72,4.77,7.85,8,13.72,8c8.7,0,15.78-7.08,15.78-15.78c0-0.36-0.02-0.72-0.04-1.07v-21.4H117.2z"/>
						</defs>
						<use xlink:href="#SVGID_3_"  style="overflow:visible;fill:#FFFFFF;"/>
						<clipPath id="SVGID_4_">
							<use xlink:href="#SVGID_3_"  style="overflow:visible;"/>
						</clipPath>
						<rect x="21.31" y="17.36" class="st5" width="98.5" height="38.25"/>
					</g>
					<g>
						<defs>
							<path id="SVGID_5_" d="M49.54,17.36v12.81c-2.89-3.72-7.4-6.12-12.46-6.12c-8.7,0-15.78,7.08-15.78,15.78
								S28.39,55.6,37.09,55.6c7.03,0,13-4.63,15.03-11l-1.9-3.3c-0.74,6.59-6.34,11.73-13.13,11.73c-7.29,0-13.21-5.93-13.21-13.21
								c0-7.29,5.93-13.21,13.21-13.21c4.77,0,8.96,2.54,11.28,6.34l0,0l0.38,0.66c0.01,0.01,0.01,0.02,0.02,0.04L49.54,35v0.18h0.1
								l3.19,5.52v0l3.98,6.89l0.02,0.02c2.72,4.77,7.84,8,13.72,8c0.85,0,1.68-0.07,2.49-0.2v0.01c0.06-0.01,0.13-0.02,0.19-0.03
								c0,0,0.01,0,0.01,0c5.84-1,10.59-5.22,12.36-10.77l-1.9-3.3c-0.32,2.87-1.57,5.47-3.43,7.49v-0.02
								c-2.42,2.62-5.88,4.27-9.72,4.27c-4.76,0-8.94-2.53-11.27-6.32l-0.37-0.63c-0.02-0.04-0.04-0.09-0.07-0.13l-4.05-7.01
								c0,0,0,0.01,0,0.01l-2.68-4.65V17.36H49.54z M117.2,17.36v13.79c-2.83-4.27-7.67-7.09-13.16-7.09
								c-7.03,0-13,4.63-15.03,10.99l1.9,3.3c0.74-6.59,6.34-11.73,13.13-11.73c7.29,0,13.21,5.93,13.21,13.21
								c0,7.29-5.93,13.21-13.21,13.21c-4.76,0-8.94-2.53-11.27-6.32l-0.37-0.63c-0.02-0.04-0.04-0.09-0.07-0.13l-4.05-7.01
								c0,0,0,0.01,0,0.01l-2.34-4.05V17.36h-2.57v13.27c-2.12-2.94-5.23-5.13-8.84-6.06c-0.01,0-0.01,0-0.02,0
								c-0.33-0.09-0.67-0.16-1.01-0.22c-0.11-0.02-0.21-0.04-0.32-0.06c-0.05-0.01-0.09-0.02-0.14-0.03v0
								c-0.81-0.13-1.64-0.2-2.49-0.2c-7.03,0-13,4.63-15.03,10.99l1.9,3.3c0.74-6.59,6.34-11.73,13.13-11.73
								c0.94,0,1.85,0.1,2.74,0.29c0.04,0.01,0.08,0.02,0.13,0.03c0.2,0.05,0.4,0.09,0.59,0.14c0.01,0,0.02,0.01,0.03,0.01
								c2.43,0.66,4.57,2,6.23,3.8v-0.02c0.59,0.64,1.13,1.34,1.58,2.09l0,0l0.38,0.66c0.01,0.01,0.01,0.02,0.02,0.04l4.08,7.06v0
								l3.98,6.89l0.02,0.02c2.72,4.77,7.85,8,13.72,8c8.7,0,15.78-7.08,15.78-15.78c0-0.36-0.02-0.72-0.04-1.07v-21.4H117.2z"/>
						</defs>
						<clipPath id="SVGID_6_">
							<use xlink:href="#SVGID_5_"  style="overflow:visible;"/>
						</clipPath>
					</g>
				</g>
			</g>
		</g>
	</g>
</g>
<g>
	<text transform="matrix(1 0 0 1 190.4097 188.3234)" class="st0 st2 st3 st4">EAST ANGLIA</text>
	<g>
		<g>
			<g>
				<defs>
					<path id="SVGID_7_" d="M209.13,135.09v12.81c-2.89-3.72-7.4-6.12-12.46-6.12c-8.7,0-15.78,7.08-15.78,15.78
						c0,8.7,7.08,15.78,15.78,15.78c7.03,0,13-4.63,15.03-11l-1.9-3.3c-0.74,6.59-6.34,11.73-13.13,11.73
						c-7.29,0-13.21-5.93-13.21-13.21c0-7.29,5.93-13.21,13.21-13.21c4.77,0,8.96,2.54,11.28,6.34l0,0l0.38,0.66
						c0.01,0.01,0.01,0.02,0.02,0.04l0.78,1.36v0.18h0.1l3.19,5.52v0l3.98,6.89l0.02,0.02c2.72,4.77,7.84,8,13.72,8
						c0.85,0,1.68-0.07,2.49-0.2v0.01c0.06-0.01,0.13-0.02,0.19-0.03c0,0,0.01,0,0.01,0c5.84-1,10.59-5.22,12.36-10.77l-1.9-3.3
						c-0.32,2.87-1.57,5.47-3.43,7.49v-0.02c-2.42,2.62-5.88,4.27-9.72,4.27c-4.76,0-8.94-2.53-11.27-6.32l-0.37-0.63
						c-0.02-0.04-0.04-0.09-0.07-0.13l-4.05-7.01c0,0,0,0.01,0,0.01l-2.68-4.65v-16.95H209.13z M276.78,135.09v13.79
						c-2.83-4.27-7.67-7.09-13.16-7.09c-7.03,0-13,4.63-15.03,10.99l1.9,3.3c0.74-6.59,6.34-11.73,13.13-11.73
						c7.29,0,13.21,5.93,13.21,13.21c0,7.29-5.93,13.21-13.21,13.21c-4.76,0-8.94-2.53-11.27-6.32l-0.37-0.63
						c-0.02-0.04-0.04-0.09-0.07-0.13l-4.05-7.01c0,0,0,0.01,0,0.01l-2.34-4.05v-17.55h-2.57v13.27c-2.12-2.94-5.23-5.13-8.84-6.06
						c-0.01,0-0.01,0-0.02,0c-0.33-0.09-0.67-0.16-1.01-0.22c-0.11-0.02-0.21-0.04-0.32-0.06c-0.05-0.01-0.09-0.02-0.14-0.03v0
						c-0.81-0.13-1.64-0.2-2.49-0.2c-7.03,0-13,4.63-15.03,10.99l1.9,3.3c0.74-6.59,6.34-11.73,13.13-11.73
						c0.94,0,1.85,0.1,2.74,0.29c0.04,0.01,0.08,0.02,0.13,0.03c0.2,0.05,0.4,0.09,0.59,0.14c0.01,0,0.02,0.01,0.03,0.01
						c2.43,0.66,4.57,2,6.23,3.8v-0.02c0.59,0.64,1.13,1.34,1.58,2.09l0,0l0.38,0.66c0.01,0.01,0.01,0.02,0.02,0.04l4.08,7.06v0
						l3.98,6.89l0.02,0.02c2.72,4.77,7.85,8,13.72,8c8.7,0,15.78-7.08,15.78-15.78c0-0.36-0.02-0.72-0.04-1.07v-21.4H276.78z"/>
				</defs>
				<clipPath id="SVGID_8_">
					<use xlink:href="#SVGID_7_"  style="overflow:visible;"/>
				</clipPath>
			</g>
			<g>
				<defs>
					<path id="SVGID_9_" d="M209.13,135.09v12.81c-2.89-3.72-7.4-6.12-12.46-6.12c-8.7,0-15.78,7.08-15.78,15.78
						c0,8.7,7.08,15.78,15.78,15.78c7.03,0,13-4.63,15.03-11l-1.9-3.3c-0.74,6.59-6.34,11.73-13.13,11.73
						c-7.29,0-13.21-5.93-13.21-13.21c0-7.29,5.93-13.21,13.21-13.21c4.77,0,8.96,2.54,11.28,6.34l0,0l0.38,0.66
						c0.01,0.01,0.01,0.02,0.02,0.04l0.78,1.36v0.18h0.1l3.19,5.52v0l3.98,6.89l0.02,0.02c2.72,4.77,7.84,8,13.72,8
						c0.85,0,1.68-0.07,2.49-0.2v0.01c0.06-0.01,0.13-0.02,0.19-0.03c0,0,0.01,0,0.01,0c5.84-1,10.59-5.22,12.36-10.77l-1.9-3.3
						c-0.32,2.87-1.57,5.47-3.43,7.49v-0.02c-2.42,2.62-5.88,4.27-9.72,4.27c-4.76,0-8.94-2.53-11.27-6.32l-0.37-0.63
						c-0.02-0.04-0.04-0.09-0.07-0.13l-4.05-7.01c0,0,0,0.01,0,0.01l-2.68-4.65v-16.95H209.13z M276.78,135.09v13.79
						c-2.83-4.27-7.67-7.09-13.16-7.09c-7.03,0-13,4.63-15.03,10.99l1.9,3.3c0.74-6.59,6.34-11.73,13.13-11.73
						c7.29,0,13.21,5.93,13.21,13.21c0,7.29-5.93,13.21-13.21,13.21c-4.76,0-8.94-2.53-11.27-6.32l-0.37-0.63
						c-0.02-0.04-0.04-0.09-0.07-0.13l-4.05-7.01c0,0,0,0.01,0,0.01l-2.34-4.05v-17.55h-2.57v13.27c-2.12-2.94-5.23-5.13-8.84-6.06
						c-0.01,0-0.01,0-0.02,0c-0.33-0.09-0.67-0.16-1.01-0.22c-0.11-0.02-0.21-0.04-0.32-0.06c-0.05-0.01-0.09-0.02-0.14-0.03v0
						c-0.81-0.13-1.64-0.2-2.49-0.2c-7.03,0-13,4.63-15.03,10.99l1.9,3.3c0.74-6.59,6.34-11.73,13.13-11.73
						c0.94,0,1.85,0.1,2.74,0.29c0.04,0.01,0.08,0.02,0.13,0.03c0.2,0.05,0.4,0.09,0.59,0.14c0.01,0,0.02,0.01,0.03,0.01
						c2.43,0.66,4.57,2,6.23,3.8v-0.02c0.59,0.64,1.13,1.34,1.58,2.09l0,0l0.38,0.66c0.01,0.01,0.01,0.02,0.02,0.04l4.08,7.06v0
						l3.98,6.89l0.02,0.02c2.72,4.77,7.85,8,13.72,8c8.7,0,15.78-7.08,15.78-15.78c0-0.36-0.02-0.72-0.04-1.07v-21.4H276.78z"/>
				</defs>
				<use xlink:href="#SVGID_9_"  style="overflow:visible;fill:#574293;"/>
				<clipPath id="SVGID_10_">
					<use xlink:href="#SVGID_9_"  style="overflow:visible;"/>
				</clipPath>
				<rect x="180.9" y="135.09" class="st6" width="98.5" height="38.25"/>
			</g>
			<g>
				<defs>
					<path id="SVGID_11_" d="M209.13,135.09v12.81c-2.89-3.72-7.4-6.12-12.46-6.12c-8.7,0-15.78,7.08-15.78,15.78
						c0,8.7,7.08,15.78,15.78,15.78c7.03,0,13-4.63,15.03-11l-1.9-3.3c-0.74,6.59-6.34,11.73-13.13,11.73
						c-7.29,0-13.21-5.93-13.21-13.21c0-7.29,5.93-13.21,13.21-13.21c4.77,0,8.96,2.54,11.28,6.34l0,0l0.38,0.66
						c0.01,0.01,0.01,0.02,0.02,0.04l0.78,1.36v0.18h0.1l3.19,5.52v0l3.98,6.89l0.02,0.02c2.72,4.77,7.84,8,13.72,8
						c0.85,0,1.68-0.07,2.49-0.2v0.01c0.06-0.01,0.13-0.02,0.19-0.03c0,0,0.01,0,0.01,0c5.84-1,10.59-5.22,12.36-10.77l-1.9-3.3
						c-0.32,2.87-1.57,5.47-3.43,7.49v-0.02c-2.42,2.62-5.88,4.27-9.72,4.27c-4.76,0-8.94-2.53-11.27-6.32l-0.37-0.63
						c-0.02-0.04-0.04-0.09-0.07-0.13l-4.05-7.01c0,0,0,0.01,0,0.01l-2.68-4.65v-16.95H209.13z M276.78,135.09v13.79
						c-2.83-4.27-7.67-7.09-13.16-7.09c-7.03,0-13,4.63-15.03,10.99l1.9,3.3c0.74-6.59,6.34-11.73,13.13-11.73
						c7.29,0,13.21,5.93,13.21,13.21c0,7.29-5.93,13.21-13.21,13.21c-4.76,0-8.94-2.53-11.27-6.32l-0.37-0.63
						c-0.02-0.04-0.04-0.09-0.07-0.13l-4.05-7.01c0,0,0,0.01,0,0.01l-2.34-4.05v-17.55h-2.57v13.27c-2.12-2.94-5.23-5.13-8.84-6.06
						c-0.01,0-0.01,0-0.02,0c-0.33-0.09-0.67-0.16-1.01-0.22c-0.11-0.02-0.21-0.04-0.32-0.06c-0.05-0.01-0.09-0.02-0.14-0.03v0
						c-0.81-0.13-1.64-0.2-2.49-0.2c-7.03,0-13,4.63-15.03,10.99l1.9,3.3c0.74-6.59,6.34-11.73,13.13-11.73
						c0.94,0,1.85,0.1,2.74,0.29c0.04,0.01,0.08,0.02,0.13,0.03c0.2,0.05,0.4,0.09,0.59,0.14c0.01,0,0.02,0.01,0.03,0.01
						c2.43,0.66,4.57,2,6.23,3.8v-0.02c0.59,0.64,1.13,1.34,1.58,2.09l0,0l0.38,0.66c0.01,0.01,0.01,0.02,0.02,0.04l4.08,7.06v0
						l3.98,6.89l0.02,0.02c2.72,4.77,7.85,8,13.72,8c8.7,0,15.78-7.08,15.78-15.78c0-0.36-0.02-0.72-0.04-1.07v-21.4H276.78z"/>
				</defs>
				<clipPath id="SVGID_12_">
					<use xlink:href="#SVGID_11_"  style="overflow:visible;"/>
				</clipPath>
			</g>
		</g>
	</g>
</g>
</svg>
